<svg width="25" height="11" viewBox="0 0 25 11" fill="none" xmlns="http://www.w3.org/2000/svg">
<path d="M0.647455 9.20532V0.478049H3.59632C4.27814 0.478049 4.8378 0.594527 5.2753 0.827481C5.7128 1.05759 6.03666 1.37436 6.24689 1.77777C6.45711 2.18117 6.56223 2.63998 6.56223 3.15419C6.56223 3.66839 6.45711 4.12436 6.24689 4.52208C6.03666 4.91981 5.71422 5.23231 5.27956 5.45958C4.8449 5.68402 4.2895 5.79623 3.61336 5.79623H1.227V4.84169H3.57927C4.04518 4.84169 4.42018 4.7735 4.70427 4.63714C4.99121 4.50078 5.19859 4.30759 5.32643 4.05759C5.45711 3.80475 5.52246 3.50362 5.52246 3.15419C5.52246 2.80475 5.45711 2.49936 5.32643 2.23799C5.19575 1.97663 4.98694 1.77492 4.70001 1.63288C4.41308 1.48799 4.03382 1.41555 3.56223 1.41555H1.70427V9.20532H0.647455ZM4.75541 5.28487L6.90314 9.20532H5.67586L3.56223 5.28487H4.75541ZM11.4937 6.47805H12.6528L13.6244 7.75646L13.8801 8.09737L15.3289 10.0235H14.1698L13.2153 8.74509L12.9766 8.42123L11.4937 6.47805ZM15.6869 4.84169C15.6869 5.76214 15.5207 6.55759 15.1883 7.22805C14.8559 7.8985 14.3999 8.41555 13.8204 8.77919C13.2409 9.14282 12.5789 9.32464 11.8346 9.32464C11.0903 9.32464 10.4284 9.14282 9.8488 8.77919C9.26926 8.41555 8.81329 7.8985 8.48091 7.22805C8.14852 6.55759 7.98233 5.76214 7.98233 4.84169C7.98233 3.92123 8.14852 3.12578 8.48091 2.45532C8.81329 1.78487 9.26926 1.26782 9.8488 0.904186C10.4284 0.540549 11.0903 0.358731 11.8346 0.358731C12.5789 0.358731 13.2409 0.540549 13.8204 0.904186C14.3999 1.26782 14.8559 1.78487 15.1883 2.45532C15.5207 3.12578 15.6869 3.92123 15.6869 4.84169ZM14.6641 4.84169C14.6641 4.086 14.5377 3.44822 14.2849 2.92833C14.0349 2.40845 13.6954 2.01498 13.2664 1.74794C12.8403 1.48089 12.363 1.34737 11.8346 1.34737C11.3062 1.34737 10.8275 1.48089 10.3985 1.74794C9.97238 2.01498 9.6329 2.40845 9.38005 2.92833C9.13005 3.44822 9.00505 4.086 9.00505 4.84169C9.00505 5.59737 9.13005 6.23515 9.38005 6.75504C9.6329 7.27492 9.97238 7.66839 10.3985 7.93544C10.8275 8.20248 11.3062 8.336 11.8346 8.336C12.363 8.336 12.8403 8.20248 13.2664 7.93544C13.6954 7.66839 14.0349 7.27492 14.2849 6.75504C14.5377 6.23515 14.6641 5.59737 14.6641 4.84169ZM23.4298 3.20532C23.336 2.91839 23.2124 2.66129 23.059 2.43402C22.9085 2.2039 22.7281 2.00788 22.5178 1.84595C22.3105 1.68402 22.0747 1.56044 21.8105 1.47521C21.5462 1.38998 21.2565 1.34737 20.9411 1.34737C20.4241 1.34737 19.9539 1.48089 19.5306 1.74794C19.1073 2.01498 18.7707 2.40845 18.5207 2.92833C18.2707 3.44822 18.1457 4.086 18.1457 4.84169C18.1457 5.59737 18.2721 6.23515 18.5249 6.75504C18.7778 7.27492 19.1201 7.66839 19.5519 7.93544C19.9837 8.20248 20.4695 8.336 21.0093 8.336C21.5093 8.336 21.9497 8.22947 22.3303 8.0164C22.7139 7.80049 23.0122 7.49652 23.2252 7.10447C23.4411 6.70958 23.5491 6.24509 23.5491 5.711L23.873 5.77919H21.248V4.84169H24.5718V5.77919C24.5718 6.49794 24.4184 7.12294 24.1116 7.65419C23.8076 8.18544 23.3872 8.59737 22.8502 8.88998C22.3161 9.17975 21.7025 9.32464 21.0093 9.32464C20.2366 9.32464 19.5576 9.14282 18.9724 8.77919C18.39 8.41555 17.9355 7.8985 17.6087 7.22805C17.2849 6.55759 17.123 5.76214 17.123 4.84169C17.123 4.15134 17.2153 3.53061 17.3999 2.97947C17.5874 2.42549 17.8516 1.9539 18.1926 1.5647C18.5335 1.17549 18.9369 0.877197 19.4028 0.669811C19.8687 0.462424 20.3815 0.358731 20.9411 0.358731C21.4014 0.358731 21.8303 0.428333 22.2281 0.567538C22.6286 0.703901 22.9852 0.898504 23.2977 1.15134C23.613 1.40134 23.8758 1.70106 24.086 2.05049C24.2962 2.39708 24.4411 2.78203 24.5207 3.20532H23.4298Z" fill="#CB0E0E"/>
</svg>
